<?xml version="1.0" encoding="UTF-8"?>
<!DOCTYPE svg PUBLIC "-//W3C//DTD SVG 1.1//EN" "http://www.w3.org/Graphics/SVG/1.1/DTD/svg11.dtd">
<!-- Creator: CorelDRAW 2020 (64 Bit) -->
<svg xmlns="http://www.w3.org/2000/svg" xml:space="preserve" width="100mm" height="19.9134mm" version="1.1" style="shape-rendering:geometricPrecision; text-rendering:geometricPrecision; image-rendering:optimizeQuality; fill-rule:evenodd; clip-rule:evenodd"
viewBox="0 0 5322.2 1059.83"
 xmlns:xlink="http://www.w3.org/1999/xlink"
 xmlns:xodm="http://www.corel.com/coreldraw/odm/2003">
 <defs>
  <style type="text/css">
   <![CDATA[
    .fil1 {fill:#00DAEB;fill-rule:nonzero}
    .fil0 {fill:#2C3F4E;fill-rule:nonzero}
    .fil2 {fill:#8AEF7E;fill-rule:nonzero}
    .fil5 {fill:#FF4373;fill-rule:nonzero}
    .fil6 {fill:#FF6227;fill-rule:nonzero}
    .fil3 {fill:#FFE64B;fill-rule:nonzero}
    .fil4 {fill:white;fill-rule:nonzero}
   ]]>
  </style>
 </defs>
 <g id="Camada_x0020_1">
  <metadata id="CorelCorpID_0Corel-Layer"/>
  <g id="_1875372539504">
   <path class="fil0" d="M2785.56 410.8c-0.71,-27.46 -1.71,-58.29 -2.99,-92.54 -1.3,-34.14 -2.67,-75.37 -4.14,-123.05 0.11,-11.54 -5.18,-21.44 -14.92,-27.9 -7.67,-5.04 -15.98,-7.89 -24.77,-8.45 -9.43,-0.43 -18.07,1.67 -25.72,6.66 -6.42,4.22 -14.11,12.66 -14.27,28.93 -0.03,3.61 -0.03,7.11 0.03,10.53 -6.2,-3.35 -12.73,-6.37 -19.59,-9.02 -17.35,-6.69 -37.13,-10.19 -59.21,-10.4l-0.06 0c-26.49,0.45 -50.22,5.44 -70.52,14.85 -20.23,9.37 -37.6,22.01 -51.61,37.6 -13.97,15.51 -24.71,33.39 -31.93,53.1 -7.18,19.58 -10.93,40.17 -11.13,61.22 -0.2,20.87 2.77,41.52 8.81,61.35 6.21,20.39 16.31,38.94 30.01,55.1 13.85,16.36 31.65,29.45 52.91,38.92 21.17,9.45 46.12,13.98 73.56,13.6 23.22,0.21 44.43,-3.56 63.04,-11.23 7.9,-3.25 15.35,-7.01 22.31,-11.24 0.04,6.28 0.03,12.51 -0.03,18.7 -0.15,15.95 -0.64,33.49 -1.45,52.56 -0.76,15.65 -2.88,30.76 -6.32,44.87 -3.31,13.51 -8.21,25.68 -14.54,36.15 -5.99,9.82 -13.74,17.56 -23.69,23.63 -9.68,5.88 -21.68,9.06 -35.81,9.47 -10.66,0.53 -21.55,-1.75 -32.52,-6.42 -11.25,-4.78 -22.68,-13.06 -33.98,-24.57 -11.06,-11.24 -22.53,-13.2 -30.15,-12.92 -10.39,0.38 -19.2,3.77 -26.13,10.04 -6.81,6.14 -11.07,14.11 -12.67,23.66 -1.25,7.44 -0.58,18.74 9.38,30.12 14.83,17.98 33.79,32.23 56.35,42.37 19.8,8.88 40.73,13.48 62.53,13.68 3.09,0.03 6.21,-0.03 9.34,-0.18 27.32,-1.83 51.37,-8.64 71.49,-20.22 19.92,-11.51 36.59,-26.47 49.57,-44.48 12.67,-17.62 22.37,-37.42 28.82,-58.88 6.37,-21.21 9.71,-43.43 9.93,-65.7 0.92,-29.75 1.34,-57.25 1.26,-81.73 -0.1,-24.6 -0.49,-50.65 -1.2,-78.18zm-83.49 -55.61l0 0c-0.11,11.99 -1.96,23.84 -5.49,35.21 -3.37,10.89 -8.57,20.63 -15.42,28.96 -6.78,8.25 -14.94,14.57 -24.96,19.31 -9.74,4.62 -21.57,6.93 -35.16,6.83 -28.43,-1.43 -49.26,-10.74 -63.7,-28.46 -15.12,-18.52 -22.62,-38.77 -22.95,-61.51 0.11,-11.86 2.07,-23.39 5.82,-34.28 3.68,-10.71 9.08,-20.44 16.04,-28.93 6.78,-8.24 15.49,-15.13 25.87,-20.5 10.22,-5.24 22.39,-8.11 35.53,-8.54 13.8,0.13 26.09,2.71 36.55,7.65 10.49,4.97 19.44,11.74 26.6,20.1 7.22,8.46 12.63,18.27 16.05,29.17 3.57,11.35 5.33,23.12 5.21,34.98z"/>
   <path class="fil0" d="M2902.66 533.16c9.34,-6.14 14.4,-16.25 14.23,-28.59l-2.78 -131.66c0.38,-16.1 1.58,-31.46 3.56,-45.69 1.84,-13.34 4.99,-24.98 8.98,-33.82 9.54,-18.2 21.4,-27.95 36.24,-29.83 14.62,-1.88 26.66,3.67 37.98,17.66 8.53,10.15 18.05,15.79 28.27,16.7 13.24,1.27 21.85,-4 26.73,-8.63 6.59,-6.21 10.39,-14.56 11.28,-24.85 0.84,-9.87 -2.03,-19.89 -8.98,-30.49 -11.31,-15.39 -24.92,-26.9 -40.49,-34.24 -30.43,-14.29 -62.51,-13.53 -92.7,-0.54 -4.87,2.1 -9.58,4.47 -14.11,7.09l-0.21 -14.6c-0.22,-16.34 -7.25,-25.31 -13.11,-29.97 -15.21,-12.03 -36.61,-11.7 -51.38,0.7 -5.73,4.8 -12.52,13.95 -12.29,30.33l5.25 313c0.17,12.22 5.49,22.2 14.96,28.07 7.55,4.68 15.76,7 24.38,6.88 8.6,-0.12 16.73,-2.65 24.18,-7.54z"/>
   <path class="fil0" d="M3346.67 499.55l0 8.5c0,12.03 5.09,22.14 14.33,28.46 7.72,5.31 16.3,7.99 25.51,7.99 9.45,0 18.21,-2.96 26.03,-8.85 6.3,-4.72 13.81,-13.67 13.81,-29.53 0,-29.11 -0.16,-52.55 -0.48,-70.34 -0.33,-17.6 -0.48,-32.48 -0.48,-44.65l0 -33.32c0,-10.11 -0.16,-21.51 -0.49,-34.23 -0.33,-12.53 -0.64,-24.93 -0.96,-43.58 -0.33,-18.69 -0.81,-43.17 -1.45,-73.47l-0.06 -1.08c-1.38,-14.97 -9.32,-22.91 -15.82,-26.99 -8.11,-5.01 -16.91,-7 -26.14,-6.06 -8.7,0.98 -16.69,4.35 -23.73,10.01 -5.91,4.72 -12.96,13.47 -12.96,28.29l0 40.44c-0.62,69.3 -5.25,129.7 -19.95,167.06 -13.24,33.64 -36.46,39.85 -66.3,39.85 -18.39,0 -31.18,-5.95 -40.28,-18.73 -10.56,-14.83 -18.15,-34.4 -22.56,-58.21 -4.66,-25.2 -7.34,-52.98 -7.96,-82.57l-1.93 -84.94c0,-16.17 -7.77,-24.93 -14.34,-29.46 -7.96,-5.46 -16.68,-8 -25.87,-7.46 -8.98,0.51 -17.24,3.73 -24.57,9.58 -5.91,4.72 -12.95,13.46 -12.95,28.3 0,22.62 0.14,45.88 0.48,69.78 0.33,24.25 1.82,45.16 4.45,68.37 2.63,23.49 6.66,45.94 11.96,66.78 5.53,21.79 13.66,41.16 24.14,57.57 10.96,17.2 25.44,30.92 43.06,40.82 17.82,10.04 39.37,14.74 63.49,14.05 27.78,0 51.84,-5.92 71.5,-17.59 7.29,-4.31 14.15,-9.27 20.55,-14.81z"/>
   <path class="fil0" d="M3807.1 9.8c-15.27,-13.24 -37.3,-13 -51.69,0.35 -7.4,6.87 -11.62,16.57 -12.54,28.84l-0.04 0.47c-1.93,44.21 -3.39,54.48 -4.35,94.13 -0.7,28.73 -0.98,28.31 -0.84,56.95 -18.55,-12.45 -39.2,-20.99 -61.71,-25.46 -33.51,-6.62 -66.02,-4.29 -96.6,6.93 -30.93,11.38 -56.95,32.33 -77.35,62.22 -20.5,30.02 -29.83,69.7 -27.73,118.47 3.47,43.68 16.56,78.98 38.92,104.87 22.09,25.62 48.53,43.26 78.57,52.44 29.78,9.13 60.97,10.19 92.72,3.2 21.01,-4.6 40.16,-12.51 57.24,-23.61 0.1,3.89 0.15,7.79 0.15,11.67l0.24 2.7c1.96,10.85 6.77,19.33 14.27,25.19 7.23,5.69 15.43,8.56 24.36,8.56 8.91,0 17.11,-2.87 24.37,-8.56 7.49,-5.88 12.28,-14.34 14.27,-25.16l0.27 -1.46 -1.96 -136.29c-0.65,-42.79 -1.13,-85.1 -1.45,-126.96 -0.33,-41.12 -0.16,-54.27 0.48,-96.9 0.62,-41.81 1.92,-54.6 3.86,-101.65l0.03 -0.9 -0.07 -0.9c-0.97,-12.47 -5.48,-22.27 -13.42,-29.14zm-69.11 338.98l0 0c-0.02,18.26 -4.15,34.21 -12.26,47.46 -8.28,13.54 -18.86,24.15 -31.44,31.54 -12.81,7.51 -27.25,12.02 -42.94,13.42 -15.51,1.41 -30.18,-0.7 -43.64,-6.18 -13.22,-5.39 -25.1,-14.71 -35.34,-27.71 -10.07,-12.77 -16.31,-30.13 -18.57,-51.7 -2.89,-25.96 -0.27,-47.75 7.81,-64.75 8.08,-17.01 18.82,-30.07 31.9,-38.78 13.29,-8.85 27.85,-13.54 44.5,-14.39 1.64,-0.08 3.28,-0.13 4.89,-0.13 14.72,0 28.27,3.42 41.24,10.4 14.32,7.72 26.88,20.09 37.34,36.74 10.36,16.53 15.91,38.07 16.52,64.07z"/>
   <path class="fil0" d="M4159.75 535.3c8.3,-6.08 13.27,-14.98 14.36,-25.72l0.12 -1.26 -0.07 -1.27c-3.85,-58.26 -6.12,-115.19 -6.73,-169.25 -0.66,-54.83 -1.96,-110.21 -3.91,-165.26 -0.98,-12.47 -5.34,-22.12 -13.01,-28.72 -14.4,-12.33 -35.55,-12.45 -50.78,-0.31 -8.23,6.59 -12.9,16.37 -13.86,29.06l-0.05 1.15c0,8.74 0.13,17.5 0.4,26.21 -4.07,-2.37 -8.24,-4.58 -12.49,-6.6 -14.68,-6.97 -30.96,-10.87 -49.04,-11.62 -23.4,0 -44.92,4.55 -63.97,13.53 -18.96,8.95 -35.28,21.28 -48.51,36.68 -13,15.11 -23.33,32.55 -30.7,51.85 -7.28,19.05 -11.67,38.9 -13.03,58.79 -1.42,17.57 -0.16,35.06 3.71,51.93 3.87,16.97 10.16,32.76 18.69,46.94 8.63,14.41 19.93,27.18 33.57,37.94 13.95,11.02 30.95,18.83 50.24,23.13 31.36,7.67 59.45,8.3 83.42,1.84 13.49,-3.64 25.92,-8.71 37.16,-15.16l1.25 20.2c1.31,14.8 8.85,22.73 14.92,26.75 7.36,4.9 15.4,7.39 23.89,7.39 8.72,0 16.95,-2.77 24.43,-8.23zm-69.81 -184.91l0 0c0.58,16.43 -3.56,32.92 -12.98,46.4 -0.06,0.09 -0.12,0.18 -0.19,0.27 -6.77,9.64 -14.73,17.67 -23.67,23.83 -8.6,5.96 -18.28,9.93 -28.81,11.83 -9.93,1.76 -19.82,0.64 -30.23,-3.57l-0.32 -0.13c-17.64,-6.65 -29.96,-16.51 -37.67,-30.16 -8.33,-14.73 -12.66,-30.02 -13.23,-46.69 -0.59,-19.21 2.24,-35.63 8.37,-48.8 6.09,-13.07 13.91,-23.23 23.24,-30.2 9.51,-7.11 19.82,-11.5 31.53,-13.41 4.14,-0.69 8.19,-1.03 12.17,-1.03 7.26,0 14.3,1.14 21.27,3.42 10.64,3.49 20.58,9.97 29.54,19.25 4.97,5.15 9.28,11.37 12.92,18.59 4.77,9.49 6.98,20.08 7.36,30.69l0.7 19.72z"/>
   <path class="fil0" d="M4489.69 501.28l0.25 2.7c1.95,10.85 6.76,19.33 14.26,25.19 7.23,5.69 15.43,8.56 24.37,8.56 8.91,0 17.11,-2.87 24.37,-8.56 7.48,-5.88 12.28,-14.34 14.26,-25.16l0.27 -1.46 -1.96 -136.29c-0.65,-42.79 -1.13,-85.1 -1.45,-126.96 -0.33,-41.12 -0.16,-54.27 0.48,-96.9 0.62,-41.81 1.92,-54.6 3.86,-101.65l0.04 -0.9 -0.07 -0.9c-0.96,-12.47 -5.48,-22.27 -13.41,-29.14 -15.28,-13.24 -37.3,-13 -51.69,0.35 -7.4,6.87 -11.62,16.57 -12.54,28.84l-0.03 0.47c-1.93,44.21 -3.4,54.48 -4.35,94.13 -0.71,28.73 -0.99,28.31 -0.84,56.95 -18.56,-12.45 -39.2,-20.99 -61.71,-25.46 -33.51,-6.62 -66.04,-4.29 -96.6,6.93 -30.94,11.38 -56.96,32.33 -77.36,62.22 -20.49,30.02 -29.83,69.7 -27.72,118.47 3.46,43.68 16.55,78.98 38.91,104.87 22.09,25.62 48.53,43.26 78.56,52.44 29.79,9.13 60.98,10.19 92.73,3.2 21.01,-4.6 40.16,-12.51 57.25,-23.61 0.1,3.89 0.14,7.79 0.14,11.67zm-3.86 -152.5l0 0c-0.02,18.26 -4.15,34.21 -12.26,47.46 -8.29,13.54 -18.86,24.15 -31.43,31.54 -12.82,7.51 -27.25,12.02 -42.95,13.42 -15.5,1.41 -30.18,-0.7 -43.64,-6.18 -13.22,-5.39 -25.1,-14.71 -35.34,-27.71 -10.07,-12.77 -16.31,-30.13 -18.57,-51.7 -2.9,-25.96 -0.27,-47.75 7.8,-64.75 8.08,-17.01 18.82,-30.07 31.9,-38.78 13.29,-8.85 27.85,-13.54 44.51,-14.39 1.64,-0.08 3.27,-0.13 4.88,-0.13 14.72,0 28.27,3.42 41.25,10.4 14.32,7.72 26.88,20.09 37.34,36.74 10.35,16.53 15.91,38.07 16.52,64.07z"/>
   <path class="fil0" d="M4901.72 468.38c13.02,-15.6 23.01,-33.39 29.66,-52.8 6.63,-19.29 9.98,-39.36 9.98,-59.7 0,-20.76 -3.15,-41.52 -9.34,-61.65 -6.35,-20.61 -16.4,-39.19 -29.86,-55.22 -13.58,-16.18 -30.88,-29.26 -51.42,-38.9 -20.56,-9.62 -44.44,-14.5 -71.32,-14.5l-0.05 0c-26.41,0.7 -50.02,5.92 -70.16,15.52 -20.1,9.57 -37.3,22.4 -51.11,38.1 -13.75,15.62 -24.3,33.59 -31.32,53.41 -6.97,19.61 -10.51,40.24 -10.51,61.3 0,20.88 3.16,41.5 9.37,61.24 6.36,20.35 16.6,38.8 30.41,54.82 13.97,16.22 31.85,29.15 53.13,38.43 19.75,8.61 42.66,12.95 68.16,12.95 1.81,0 3.66,-0.02 5.51,-0.06 25.9,-0.03 49.13,-4.94 69.03,-14.6 19.87,-9.64 36.63,-22.53 49.84,-38.34zm-118.26 -22.88l0 0c-28.45,-1.15 -49.37,-10.27 -63.97,-27.86 -15.3,-18.38 -22.99,-38.55 -23.54,-61.3 0,-11.86 1.85,-23.41 5.5,-34.33 3.58,-10.75 8.88,-20.53 15.77,-29.08 6.7,-8.3 15.34,-15.27 25.68,-20.73 10.16,-5.35 22.29,-8.33 35.45,-8.88 13.79,0 26.12,2.46 36.61,7.3 10.54,4.87 19.56,11.55 26.79,19.85 7.3,8.39 12.81,18.16 16.33,29.02 3.68,11.31 5.54,23.07 5.54,34.93 0,12 -1.73,23.85 -5.15,35.25 -3.28,10.92 -8.38,20.72 -15.14,29.11 -6.7,8.31 -14.81,14.72 -24.77,19.55 -9.7,4.72 -21.5,7.13 -35.08,7.16z"/>
   <path class="fil0" d="M3139.16 845.76c-7.32,-4.89 -15.8,-6.93 -25.2,-5.95 -9.72,0.96 -18.33,5.6 -26.13,14.44 -14.8,18.77 -29.18,33.06 -42.75,42.47 -12.99,9.02 -27.95,14.92 -44.93,17.68 -13.18,2.52 -25.37,1.95 -36.23,-1.76 -11.28,-3.84 -21.08,-9.77 -29.16,-17.6 -8.27,-8.02 -15.14,-18.36 -20.39,-30.74 -3.68,-8.63 -6.38,-17.96 -8.07,-27.86 10.72,-0.78 23.65,-2 39.08,-3.64 22.77,-2.38 46.8,-5.46 71.4,-9.14 24.37,-3.65 47.35,-7.66 68.31,-11.92 22.56,-4.57 38.35,-9.55 48.26,-15.22l0.25 -0.15c6.34,-3.81 16.59,-13.37 14.06,-35.03 -3.3,-24.24 -10.66,-45.93 -21.91,-64.46 -11.26,-18.51 -25.38,-33.95 -41.97,-45.9 -16.58,-11.93 -35.36,-20.49 -55.79,-25.42 -20.34,-4.93 -41,-6.09 -61.54,-3.46 -24.65,3.35 -45.9,11.4 -63.17,23.92 -16.91,12.29 -30.87,27.42 -41.48,44.99 -10.39,17.22 -18.14,36.46 -23.01,57.2 -4.76,20.34 -7.17,41.27 -7.17,62.24 0,29.59 4.95,56.47 14.7,79.89 9.84,23.6 23.38,43.45 40.25,58.99 17.02,15.69 36.97,26.85 59.31,33.18 12.89,3.65 26.22,5.47 39.95,5.47 10.05,0 20.3,-0.97 30.7,-2.93 22.71,-4.53 45.48,-13.69 67.68,-27.21 22.26,-13.56 44.48,-34.56 66.03,-62.45l1.47 -2.34c6,-11.98 4.67,-21.79 2.51,-27.92 -2.86,-8.06 -7.91,-14.57 -15.08,-19.37zm-131.08 -150.99l0 0c11.74,2.09 22.23,6.01 31.19,11.62 8.92,5.64 16.39,12.71 22.2,21.04 2.97,4.27 5.48,8.77 7.47,13.39 -27.48,5.82 -54.58,11.07 -80.79,15.66 -25.13,4.4 -51.74,6.99 -79.29,7.74 1.02,-4.89 2.27,-9.69 3.73,-14.36 2.85,-9.06 6.91,-17.32 12.07,-24.56 5.11,-7.16 11.49,-13.53 18.99,-18.96 7.01,-5.08 15.65,-8.69 25.66,-10.7 13.9,-2.66 26.94,-2.96 38.76,-0.86z"/>
   <path class="fil0" d="M3707.03 820.5c-2.77,-22.5 -6.86,-44.19 -12.15,-64.49 -5.5,-20.96 -13.24,-39.54 -23.03,-55.22 -10.27,-16.41 -23.51,-29.46 -39.35,-38.76 -16.16,-9.48 -35.68,-13.91 -58.03,-13.31 -16.87,0 -32.65,5.17 -46.89,15.39 -12.98,9.33 -24.41,20.59 -33.98,33.47 -8.54,11.5 -15.85,23.71 -21.73,36.32 -0.37,-0.99 -0.74,-1.96 -1.11,-2.95 -5.84,-15.25 -13.28,-29.28 -22.11,-41.73 -9.21,-12.95 -20.47,-23.69 -33.49,-31.93 -13.75,-8.68 -30.05,-13.09 -48.78,-13.09l-0.02 0c-28.61,0.7 -52.8,9.14 -71.88,25.11 -7.05,5.89 -13.66,12.43 -19.78,19.55l-0.83 -18.81c-0.92,-11.7 -5.01,-20.76 -12.21,-26.97 -13.52,-11.55 -33.39,-11.7 -47.7,-0.29 -7.72,6.2 -12.11,15.37 -13.01,27.29l-0.07 0.95 0.05 0.94c3,52.68 4.82,101.83 5.43,152.28 0.59,50.78 2.75,99.34 6.35,143.19 0,10.05 5.22,18.59 14.38,23.48 6.6,3.51 13.89,5.3 21.66,5.3 7.63,0 14.96,-1.72 21.84,-5.14 8.55,-4.29 14.26,-11.26 16.5,-20.14l0.44 -3.5c0,-13.25 0.14,-29.04 0.45,-47.43 0.28,-17.88 1.33,-36.9 3.11,-56.53 1.77,-19.44 4.45,-35.68 7.98,-54.5 3.41,-18.15 8.4,-34.62 14.85,-48.93 6.12,-13.57 13.83,-24.66 22.94,-33 7.93,-7.25 17.39,-10.77 29.39,-10.79 13.02,-0.36 22.64,4.86 30.17,16.57 9.31,14.53 16.59,33.87 21.65,57.44 5.26,24.58 8.98,49.29 11.06,79.68 2.1,31.12 4.07,61.49 5.86,90.22 0,15.21 7.32,23.43 13.47,27.64 7.6,5.23 16.28,7.38 25.09,6.51 7.92,-0.89 15.25,-3.78 21.8,-8.56 8.16,-5.98 12.66,-14.73 12.64,-25.4 -1.78,-35.46 -1.18,-65.8 1.77,-96.4 2.9,-30.26 8.02,-56.69 15.22,-78.56 6.95,-21.08 15.63,-37.76 25.83,-49.58 8.86,-10.26 18.87,-15.48 30.5,-15.94 12.88,-0.38 21.92,4.7 28.98,16.59 8.77,14.82 15.35,34.01 19.56,57.01 4.39,24.01 7.06,50.91 7.94,79.97 0.9,29.91 1.66,55.28 2.26,82.15 0,11.37 4.68,20.74 13.2,26.42 13.81,9.17 32.78,9.18 46.65,-0.02 8.48,-5.66 13.16,-15.02 13.16,-26.4 0,-22.49 -0.31,-42.28 -0.91,-65.71 -0.62,-23.68 -2.33,-47.05 -5.09,-69.41z"/>
   <path class="fil0" d="M4144.19 629.14c-9.82,-3.79 -20.25,-3.04 -30.12,2.16 -9.69,5.08 -16.82,14.82 -21.2,28.86l-66.13 208.76 -80.48 -217.28c-4.71,-12.21 -12.13,-20.52 -22.09,-24.72 -9.47,-3.97 -18.99,-4.42 -28.24,-1.37 -9.4,3.13 -16.99,9.78 -21.95,19.23 -5.34,10.13 -5.25,21.93 0.3,35.08l105 278.71c4.12,11.38 12.17,19.35 23.22,23.01 6.19,2.08 12.73,3.11 19.52,3.11 2.84,0 5.72,-0.17 8.65,-0.54 9.62,-1.2 18.44,-4.08 26.21,-8.57 9.17,-5.31 15.63,-12.94 18.68,-22.07l91.94 -271.01c3.7,-12.05 3.07,-23.2 -1.9,-33.17 -4.91,-9.75 -12.08,-16.54 -21.4,-20.18z"/>
   <path class="fil0" d="M4471.66 691.98c-13.43,-16.01 -30.55,-28.96 -50.89,-38.5 -20.35,-9.52 -43.97,-14.35 -70.57,-14.35l-0.05 0c-26.14,0.69 -49.51,5.86 -69.44,15.37 -19.88,9.47 -36.9,22.16 -50.58,37.7 -13.61,15.46 -24.04,33.24 -31,52.85 -6.9,19.4 -10.4,39.83 -10.4,60.66 0,20.67 3.12,41.07 9.28,60.61 6.3,20.14 16.43,38.39 30.1,54.25 13.82,16.05 31.51,28.85 52.57,38.02 19.54,8.53 42.22,12.83 67.46,12.83 1.8,0 3.62,-0.02 5.44,-0.05 25.64,-0.03 48.63,-4.9 68.33,-14.46 19.65,-9.53 36.24,-22.3 49.3,-37.94 12.9,-15.45 22.78,-33.03 29.37,-52.25 6.55,-19.09 9.87,-38.96 9.87,-59.08 0,-20.55 -3.11,-41.08 -9.25,-61.02 -6.29,-20.38 -16.22,-38.78 -29.54,-54.64zm-117.47 204.35l0 0c-28.16,-1.14 -48.86,-10.16 -63.31,-27.57 -15.14,-18.18 -22.75,-38.15 -23.3,-60.65 0,-11.74 1.83,-23.16 5.44,-33.98 3.54,-10.63 8.79,-20.31 15.6,-28.78 6.63,-8.21 15.18,-15.11 25.41,-20.52 10.06,-5.29 22.07,-8.24 35.07,-8.78 13.66,0 25.84,2.44 36.24,7.22 10.42,4.82 19.35,11.43 26.51,19.64 7.23,8.3 12.67,17.97 16.16,28.72 3.64,11.19 5.48,22.83 5.48,34.56 0,11.87 -1.71,23.6 -5.1,34.89 -3.24,10.81 -8.29,20.51 -14.98,28.81 -6.64,8.22 -14.66,14.56 -24.52,19.34 -9.6,4.68 -21.28,7.07 -34.72,7.1z"/>
   <path class="fil0" d="M4859.4 845.51c-7.28,-5.72 -16.29,-8.33 -26.29,-7.97 -7.23,0.37 -17.92,3.11 -27.55,13.95 -18.95,20.74 -38.29,35.82 -57.45,44.85 -18.76,8.83 -36.75,12.83 -53.84,12.41 -11.74,0 -21.83,-2.92 -30.86,-8.94 -9.78,-6.52 -18.34,-15.25 -25.47,-25.95 -7.39,-11.09 -13.18,-23.82 -17.17,-37.86 -4.12,-14.4 -6.5,-29.46 -7.09,-44.84 -0.59,-12.81 0.3,-25.64 2.63,-38.15 2.24,-12.09 6.05,-23.12 11.34,-32.87 5.1,-9.4 11.77,-17.58 19.82,-24.3 7.48,-6.23 17.33,-10.43 29.74,-12.6 17.55,-3.61 31.51,-1.47 42.7,6.57 12.14,8.71 21.61,21.99 27.84,38.49 3.13,10.47 9.72,18.31 18.98,22.65 8.64,4.09 17.33,5.07 25.82,2.92 8.39,-2.09 15.5,-6.76 21.12,-13.92 4.52,-5.77 9.09,-15.75 5.11,-30.27 -4.93,-19.07 -12.73,-35.65 -23.16,-49.35 -10.32,-13.5 -22.28,-24.55 -35.57,-32.81 -13.37,-8.3 -28.34,-13.97 -44.52,-16.84 -15.82,-2.79 -31.69,-3.15 -47.2,-1.06l-0.22 0.05c-23.4,3.54 -43.67,11.55 -60.23,23.8 -16.24,12 -29.65,26.85 -39.87,44.13 -10.02,16.94 -17.36,35.8 -21.82,56.04 -4.35,19.72 -6.56,39.95 -6.56,60.14 0,23.56 3.07,46.77 9.13,69 6.2,22.7 15.83,43.19 28.61,60.93 12.95,17.97 29.27,32.88 48.5,44.29 19.79,11.77 42.81,17.73 68.4,17.73 13.24,0 27.58,-1.78 42.6,-5.26 15.05,-3.5 30.41,-8.95 45.63,-16.22 15.2,-7.23 30.11,-16.43 44.3,-27.36 14.42,-11.11 27.63,-24.71 39.04,-40.18 9.15,-11.81 9.15,-22.49 7.53,-29.41 -2.09,-8.78 -6.77,-16.08 -13.98,-21.76z"/>
   <path class="fil0" d="M4978.1 572.4c2.98,0.76 6.02,1.14 9.12,1.14 3.54,0 7.15,-0.49 10.79,-1.48 7.29,-1.97 12.99,-6.04 16.96,-12.09l19.98 -33.02 24.16 32.71c5.81,8.18 13.66,11.23 19.2,12.34 10.13,2.06 17.58,-0.12 22.07,-2.33 5.96,-2.96 10.19,-7.49 12.24,-13.12 2.14,-5.93 0.59,-12.42 -4.65,-19.34l-48.21 -62.34c-1.75,-2.65 -5.52,-6.21 -13.64,-8.13 -8.96,-2.08 -18.13,-2.09 -26.63,0.07 -7.63,1.96 -11.26,5.48 -13.03,8.2l-43.21 68.59c-5.42,8.31 -3.33,14.71 -0.62,18.6 3.45,4.98 8.82,8.52 15.48,10.21z"/>
   <path class="fil0" d="M5216.39 851.56c-2.86,-8.1 -7.94,-14.64 -15.13,-19.45 -7.36,-4.91 -15.86,-6.97 -25.3,-5.98 -9.77,0.97 -18.41,5.63 -26.25,14.5 -14.86,18.86 -29.29,33.19 -42.92,42.65 -13.04,9.05 -28.07,14.99 -45.11,17.75 -13.23,2.53 -25.48,1.95 -36.38,-1.77 -11.32,-3.86 -21.17,-9.81 -29.28,-17.68 -8.31,-8.05 -15.19,-18.43 -20.49,-30.86 -3.68,-8.66 -6.39,-18.03 -8.09,-27.96 10.76,-0.8 23.74,-2.02 39.22,-3.66 22.87,-2.39 46.99,-5.49 71.7,-9.18 24.46,-3.67 47.54,-7.7 68.58,-11.97 22.65,-4.59 38.51,-9.58 48.46,-15.28l0.24 -0.15c6.37,-3.83 16.67,-13.43 14.12,-35.17 -3.29,-24.35 -10.7,-46.12 -21.99,-64.73 -11.3,-18.59 -25.48,-34.1 -42.15,-46.09 -16.65,-11.98 -35.5,-20.58 -56.01,-25.53 -20.43,-4.95 -41.18,-6.12 -61.8,-3.48 -24.76,3.36 -46.09,11.45 -63.43,24.01 -16.98,12.34 -30.99,27.53 -41.65,45.18 -10.45,17.29 -18.22,36.62 -23.1,57.44 -4.78,20.42 -7.21,41.44 -7.21,62.49 0,29.71 4.97,56.71 14.76,80.22 9.87,23.69 23.47,43.63 40.42,59.24 17.09,15.74 37.12,26.96 59.54,33.31 12.94,3.66 26.35,5.5 40.13,5.5 10.08,0 20.38,-0.98 30.82,-2.95 22.8,-4.56 45.67,-13.75 67.96,-27.32 22.36,-13.6 44.66,-34.7 66.3,-62.7l1.47 -2.35c6.02,-12.04 4.69,-21.88 2.51,-28.04zm-146.76 -171.07l0 0c11.79,2.1 22.33,6.03 31.32,11.67 8.96,5.66 16.48,12.76 22.29,21.12 3,4.3 5.51,8.8 7.51,13.45 -27.6,5.83 -54.82,11.12 -81.12,15.72 -25.24,4.42 -51.96,7.02 -79.63,7.76 1.04,-4.9 2.29,-9.73 3.75,-14.41 2.85,-9.1 6.93,-17.4 12.11,-24.66 5.14,-7.2 11.54,-13.59 19.07,-19.04 7.04,-5.11 15.7,-8.73 25.78,-10.75 13.94,-2.67 27.03,-2.98 38.91,-0.87z"/>
   <path class="fil0" d="M5236.24 925.83c0,-11.51 2.1,-21.16 6.32,-28.96 4.21,-7.8 9.51,-13.67 15.89,-17.61 6.38,-3.93 13.27,-5.95 20.68,-6.06 7.4,-0.11 14.3,1.71 20.67,5.47 6.38,3.76 11.68,9.52 15.89,17.26 4.22,7.75 6.38,17.43 6.49,29.05 0.11,7.18 -0.88,13.7 -2.99,19.56 -2.11,5.87 -5.01,10.94 -8.72,15.21 -3.7,4.27 -8.12,7.64 -13.25,10.09 -5.12,2.45 -10.65,3.79 -16.57,4.01 -6.83,0.23 -12.99,-0.73 -18.45,-2.9 -5.47,-2.17 -10.12,-5.35 -13.93,-9.57 -3.82,-4.22 -6.78,-9.34 -8.88,-15.39 -2.11,-6.03 -3.16,-12.75 -3.16,-20.16zm43.66 39.99l0 0c4.8,0 9.28,-1 13.45,-2.99 4.17,-1.99 7.77,-4.78 10.79,-8.37 3.02,-3.59 5.39,-7.91 7.11,-12.98 1.71,-5.07 2.57,-10.74 2.57,-17 0,-9.57 -1.71,-17.57 -5.14,-24.01 -3.42,-6.45 -7.71,-11.22 -12.84,-14.36 -5.15,-3.13 -10.71,-4.69 -16.7,-4.69 -6,0 -11.57,1.63 -16.71,4.88 -5.14,3.24 -9.42,8.12 -12.85,14.61 -3.42,6.49 -5.08,14.52 -4.97,24.09 0,6.15 0.77,11.74 2.32,16.74 1.54,5.02 3.79,9.32 6.76,12.91 2.96,3.59 6.65,6.38 11.05,8.37 4.4,2 9.45,2.93 15.16,2.82zm-18.54 -66.3l0 0c0.12,-1.94 0.86,-3.21 2.22,-3.84 1.37,-0.62 2.62,-0.6 3.76,0.09 2.39,-0.11 5.47,-0.09 9.23,0.09 3.76,0.16 7.46,0.73 11.11,1.7 3.65,0.97 6.83,2.48 9.56,4.53 2.74,2.05 4.22,4.84 4.44,8.37 0.23,2.74 -0.54,5.33 -2.32,7.78 -1.78,2.45 -4.78,4.59 -9.02,6.41l12.7 17.78c0.8,1.14 1.11,2.25 0.95,3.33 -0.18,1.08 -0.63,1.94 -1.37,2.55 -0.74,0.63 -1.63,0.88 -2.66,0.77 -1.03,-0.11 -2.01,-0.79 -2.92,-2.05l-14.6 -18.96c-1.83,0.45 -3.95,0.8 -6.35,1.02 -2.41,0.23 -4.52,0.46 -6.36,0.69 0.11,3.31 0.18,6.6 0.18,9.9l0 9.92c-0.22,1.25 -0.73,2.16 -1.51,2.74 -0.78,0.57 -1.64,0.85 -2.59,0.85 -0.95,0 -1.81,-0.28 -2.6,-0.85 -0.78,-0.57 -1.28,-1.48 -1.5,-2.74l0 -5.64 0 -8.46c0,-3.59 -0.03,-8.22 -0.09,-13.93 -0.06,-5.69 -0.14,-13.04 -0.26,-22.04zm8.21 4.61l0 0 0 8.8c0,2.91 0.05,5.84 0.16,8.81 0.8,0 2.54,-0.09 5.21,-0.27 2.68,-0.16 5.44,-0.62 8.29,-1.36 2.85,-0.74 5.35,-1.85 7.52,-3.33 2.16,-1.48 3.13,-3.48 2.91,-5.99 -0.23,-2.05 -1.14,-3.58 -2.73,-4.61 -1.6,-1.02 -3.59,-1.7 -5.99,-2.05 -2.39,-0.35 -4.95,-0.45 -7.69,-0.35 -2.73,0.12 -5.3,0.23 -7.69,0.35z"/>
   <path class="fil1" d="M838.85 1017.23l-740.18 0c-38.22,0 -69.2,-30.99 -69.2,-69.2l0 -740.19c0,-38.22 30.98,-69.2 69.2,-69.2l740.18 0c38.22,0 69.2,30.98 69.2,69.2l0 740.19c0,38.21 -30.99,69.2 -69.2,69.2z"/>
   <path class="fil2" d="M821.37 293.28c-27.03,-27.03 -70.84,-27.03 -97.87,0l-523.39 523.39c-27.03,27.03 -27.03,70.84 0,97.86l102.69 102.7 536.06 0c38.22,0 69.2,-30.99 69.2,-69.2l0 -568.05 -86.69 -86.69z"/>
   <path class="fil1" d="M848.9 547.52c0,74.97 -60.77,135.74 -135.73,135.74 -74.97,0 -135.73,-60.77 -135.73,-135.74 0,-74.96 60.76,-135.73 135.73,-135.73 74.96,0 135.73,60.77 135.73,135.73z"/>
   <path class="fil3" d="M351.6 540.44c0,74.97 -60.77,135.74 -135.73,135.74 -74.96,0 -135.73,-60.77 -135.73,-135.74 0,-74.96 60.77,-135.73 135.73,-135.73 74.96,0 135.73,60.77 135.73,135.73z"/>
   <path class="fil0" d="M838.85 1046.69l-740.18 0c-54.4,0 -98.67,-44.26 -98.67,-98.67l0 -740.18c0,-54.4 44.26,-98.67 98.67,-98.67l740.18 0c54.41,0 98.67,44.26 98.67,98.67l0 740.18c0,54.41 -44.26,98.67 -98.67,98.67zm-740.18 -878.59l0 0c-21.91,0 -39.74,17.82 -39.74,39.74l0 740.18c0,21.91 17.82,39.74 39.74,39.74l740.18 0c21.91,0 39.74,-17.82 39.74,-39.74l0 -740.18c0,-21.91 -17.82,-39.74 -39.74,-39.74l-740.18 0z"/>
   <path class="fil4" d="M803.67 408.65c0,74.96 -60.77,135.73 -135.73,135.73 -74.97,0 -135.74,-60.77 -135.74,-135.73 0,-74.96 60.76,-135.73 135.74,-135.73 74.96,0 135.73,60.77 135.73,135.73z"/>
   <path class="fil0" d="M667.94 573.76c-91.04,0 -165.11,-74.06 -165.11,-165.11 0,-91.04 74.06,-165.11 165.11,-165.11 91.04,0 165.1,74.07 165.1,165.11 0,91.04 -74.06,165.11 -165.1,165.11zm0 -271.47l0 0c-58.65,0 -106.37,47.71 -106.37,106.36 0,58.65 47.72,106.37 106.37,106.37 58.65,0 106.36,-47.72 106.36,-106.37 0,-58.65 -47.72,-106.36 -106.36,-106.36z"/>
   <path class="fil4" d="M409.19 408.65c0,74.96 -60.77,135.73 -135.73,135.73 -74.97,0 -135.74,-60.77 -135.74,-135.73 0,-74.96 60.77,-135.73 135.74,-135.73 74.96,0 135.73,60.77 135.73,135.73z"/>
   <path class="fil0" d="M273.46 573.76c-91.04,0 -165.11,-74.06 -165.11,-165.11 0,-91.04 74.07,-165.11 165.11,-165.11 91.04,0 165.1,74.07 165.1,165.11 0,91.04 -74.06,165.11 -165.1,165.11zm0 -271.47l0 0c-58.66,0 -106.37,47.71 -106.37,106.36 0,58.65 47.72,106.37 106.37,106.37 58.65,0 106.36,-47.72 106.36,-106.37 0,-58.65 -47.72,-106.36 -106.36,-106.36z"/>
   <path class="fil0" d="M468.76 705.08c-16.27,0 -29.46,-13.19 -29.46,-29.46l0 -131.22c0,-16.28 13.19,-29.47 29.46,-29.47 16.28,0 29.47,13.19 29.47,29.47l0 131.22c0,16.27 -13.19,29.46 -29.47,29.46z"/>
   <path class="fil0" d="M667.94 272.92l0 135.73 135.73 0c0,0 0.63,-135.73 -135.73,-135.73z"/>
   <path class="fil0" d="M273.45 272.92l0 135.73 135.73 0c0,0 0.63,-135.73 -135.73,-135.73z"/>
   <path class="fil4" d="M387.99 792.1c0,63.25 -51.28,114.54 -114.54,114.54 -63.26,0 -114.54,-51.28 -114.54,-114.54l229.08 0z"/>
   <path class="fil0" d="M273.45 936c-79.35,0 -143.91,-64.55 -143.91,-143.91 0,-16.22 13.15,-29.37 29.37,-29.37l229.08 0c16.22,0 29.37,13.15 29.37,29.37 0,79.35 -64.56,143.91 -143.91,143.91zm-79.96 -114.54l0 0c11.99,32.53 43.31,55.8 79.96,55.8 36.64,0 67.96,-23.27 79.95,-55.8l-159.91 0z"/>
   <path class="fil5" d="M1823.87 158.31l373.57 761.72c24.99,50.95 -12.1,110.44 -68.84,110.44l-747.15 0c-56.75,0 -93.83,-59.49 -68.85,-110.44l373.58 -761.72c28.06,-57.22 109.63,-57.22 137.69,0z"/>
   <polygon class="fil6" points="1492.2,556.21 1654.35,1030.47 1945.71,1030.47 2151.73,824.45 1931.04,374.44 1631.56,272.05 "/>
   <path class="fil3" d="M1574.61 791.98c0,53.42 -43.3,96.73 -96.73,96.73 -53.42,0 -96.72,-43.3 -96.72,-96.73 0,-53.42 43.3,-96.73 96.72,-96.73 53.42,0 96.73,43.3 96.73,96.73z"/>
   <path class="fil3" d="M2134.8 791.98c0,53.42 -43.31,96.73 -96.73,96.73 -53.42,0 -96.73,-43.3 -96.73,-96.73 0,-53.42 43.31,-96.73 96.73,-96.73 53.42,0 96.73,43.3 96.73,96.73z"/>
   <path class="fil0" d="M2128.6 1059.84l-747.15 0c-36.86,0 -70.5,-18.67 -90,-49.95 -19.5,-31.27 -21.44,-69.7 -5.22,-102.79l373.57 -761.72c17.95,-36.61 54.44,-59.35 95.21,-59.35 40.78,0 77.26,22.74 95.21,59.35l373.57 761.71c16.23,33.09 14.28,71.52 -5.22,102.8 -19.5,31.28 -53.14,49.95 -89.99,49.95zm-373.58 -915.07l0 0c-18.47,0 -34.34,9.89 -42.48,26.48l-373.58 761.72c-7.34,14.98 -6.5,31.69 2.33,45.86 8.83,14.16 23.46,22.28 40.15,22.28l747.15 0c16.69,0 31.32,-8.12 40.15,-22.28 8.83,-14.16 9.68,-30.87 2.33,-45.86l-373.58 -761.71c-8.13,-16.58 -24.01,-26.48 -42.48,-26.48z"/>
   <path class="fil0" d="M1694.43 416.3c0,86.5 -70.13,156.63 -156.63,156.63 -86.5,0 -156.63,-70.13 -156.63,-156.63 0,-86.5 70.13,-156.63 156.63,-156.63 86.5,0 156.63,70.13 156.63,156.63z"/>
   <path class="fil1" d="M1537.8 602.3c-102.56,0 -185.99,-83.44 -185.99,-186 0,-102.55 83.44,-185.99 185.99,-185.99 102.56,0 186,83.44 186,185.99 0,102.56 -83.44,186 -186,186zm0 -313.26l0 0c-70.17,0 -127.25,57.09 -127.25,127.26 0,70.17 57.09,127.26 127.25,127.26 70.17,0 127.26,-57.09 127.26,-127.26 0,-70.17 -57.09,-127.26 -127.26,-127.26z"/>
   <path class="fil0" d="M2128.89 416.3c0,86.5 -70.13,156.63 -156.63,156.63 -86.5,0 -156.62,-70.13 -156.62,-156.63 0,-86.5 70.12,-156.63 156.62,-156.63 86.51,0 156.63,70.13 156.63,156.63z"/>
   <path class="fil1" d="M1972.26 602.3c-102.55,0 -185.99,-83.44 -185.99,-186 0,-102.55 83.44,-185.99 185.99,-185.99 102.56,0 186,83.44 186,185.99 0,102.56 -83.44,186 -186,186zm0 -313.26l0 0c-70.16,0 -127.26,57.09 -127.26,127.26 0,70.17 57.1,127.26 127.26,127.26 70.17,0 127.26,-57.09 127.26,-127.26 0,-70.17 -57.09,-127.26 -127.26,-127.26z"/>
   <polygon class="fil1" points="1807.24,439.92 1702.82,439.92 1702.82,392.69 1807.24,392.69 "/>
   <path class="fil4" d="M2030.03 392.68c0,24.07 -19.52,43.59 -43.59,43.59 -24.07,0 -43.59,-19.52 -43.59,-43.59 0,-24.07 19.52,-43.59 43.59,-43.59 24.07,0 43.59,19.52 43.59,43.59z"/>
   <path class="fil4" d="M2051.82 459.9c0,12.03 -9.76,21.79 -21.79,21.79 -12.04,0 -21.8,-9.76 -21.8,-21.79 0,-12.04 9.76,-21.8 21.8,-21.8 12.03,0 21.79,9.76 21.79,21.8z"/>
   <path class="fil4" d="M1599.52 392.68c0,24.07 -19.52,43.59 -43.59,43.59 -24.07,0 -43.59,-19.52 -43.59,-43.59 0,-24.07 19.52,-43.59 43.59,-43.59 24.07,0 43.59,19.52 43.59,43.59z"/>
   <path class="fil4" d="M1621.31 459.9c0,12.03 -9.76,21.79 -21.8,21.79 -12.03,0 -21.79,-9.76 -21.79,-21.79 0,-12.04 9.76,-21.8 21.79,-21.8 12.04,0 21.8,9.76 21.8,21.8z"/>
   <path class="fil4" d="M1863.66 655.28c0,59.99 -48.63,108.63 -108.63,108.63 -59.99,0 -108.64,-48.64 -108.64,-108.63l217.27 0z"/>
   <path class="fil0" d="M1755.03 793.28c-76.1,0 -138,-61.9 -138,-138 0,-16.22 13.15,-29.37 29.37,-29.37l217.27 0c16.22,0 29.37,13.15 29.37,29.37 0,76.1 -61.9,138 -138,138zm-73.63 -108.63l0 0c11.7,29.2 40.29,49.89 73.63,49.89 33.33,0 61.93,-20.69 73.63,-49.89l-147.25 0z"/>
  </g>
 </g>
</svg>
